<svg id="Layer_1" data-name="Layer 1" xmlns="http://www.w3.org/2000/svg" viewBox="0 0 306 455.5"><defs><style>.cls-1{fill:#ff5304;}.cls-2{fill:#ff3f04;}.cls-3{fill:#fff;stroke-width:0.52px;}.cls-3,.cls-4{stroke:#fff;stroke-miterlimit:10;}.cls-4{fill:none;stroke-width:4px;}</style></defs><title>pentool</title><path class="cls-1" d="M604.42,284.55l.25,271.75-58.55.53C540,475.47,511.5,421.47,511.5,421.47c40.81-40.57,73.32-136.92,73.32-136.92Z" transform="translate(-456 -247.5)"/><path class="cls-2" d="M697.85,421.47s-28.52,54-34.63,135.36l-58.55-.53.26-271.75h19.6S657,380.9,697.85,421.47Z" transform="translate(-456 -247.5)"/><rect class="cls-1" x="128.31" width="41.75" height="30.96"/><path class="cls-1" d="M735,391.64h-2c0-70.25-57.33-127.39-127.8-127.39s-127.8,57.14-127.8,127.39h-2a129.83,129.83,0,0,1,259.66,0Z" transform="translate(-456 -247.5)"/><rect class="cls-1" x="13.75" y="14.72" width="278.25" height="2.03"/><ellipse class="cls-1" cx="13.75" cy="15.73" rx="13.75" ry="13.7"/><ellipse class="cls-1" cx="292.25" cy="15.73" rx="13.75" ry="13.7"/><rect class="cls-2" x="9.16" y="132.97" width="22.91" height="22.84"/><rect class="cls-2" x="266.29" y="132.97" width="22.91" height="22.84"/><ellipse class="cls-3" cx="148.67" cy="173.06" rx="15.27" ry="15.23"/><line class="cls-4" x1="149.18" y1="37.05" x2="148.67" y2="173.06"/><rect class="cls-1" x="81.46" y="308.07" width="132.89" height="15.23"/><rect class="cls-2" x="81.46" y="323.29" width="132.89" height="132.21"/></svg>