<svg xmlns="http://www.w3.org/2000/svg" viewBox="0 0 650 802.67"><defs><style>.cls-1{fill:#ff4804;}.cls-2{fill:#ff5220;}.cls-3,.cls-4{fill:none;}.cls-3{stroke:#ff5304;stroke-linecap:round;stroke-miterlimit:10;stroke-width:10px;}.cls-5{fill:#ff3b04;}.cls-6{fill:#ff5304;}</style></defs><title>REGTANGLE</title><g id="Layer_2" data-name="Layer 2"><polyline class="cls-1" points="110 257.58 110 525.58 325 669.58 540 525.58 540 257.58"/><polygon class="cls-2" points="325 401.58 110 257.58 325 133.58 540 257.58 325 401.58"/></g><g id="Layer_1" data-name="Layer 1"><line class="cls-3" x1="36" y1="207.58" x2="110" y2="257.58"/><line class="cls-3" x1="36" y1="575.58" x2="110" y2="525.58"/><line class="cls-3" x1="614" y1="575.58" x2="540" y2="525.58"/><line class="cls-3" x1="614" y1="207.58" x2="540" y2="257.58"/><polyline class="cls-4" points="110 257.58 325 401.58 540 257.58"/><line class="cls-4" x1="325" y1="670.08" x2="325" y2="401.58"/><path class="cls-5" d="M285.5,93.5" transform="translate(-249.5 114.08)"/><path class="cls-5" d="M285.5,461.5" transform="translate(-249.5 114.08)"/><path class="cls-5" d="M863.5,461.5" transform="translate(-249.5 114.08)"/><circle class="cls-5" cx="36" cy="207.58" r="36"/><circle class="cls-5" cx="36" cy="575.58" r="36"/><circle class="cls-5" cx="614" cy="575.58" r="36"/><circle class="cls-5" cx="614" cy="207.58" r="36"/><path class="cls-5" d="M863.5,93.5" transform="translate(-249.5 114.08)"/><path class="cls-6" d="M581.09,143.72a6,6,0,0,1-5.78,6h-.22a6,6,0,0,1-6-6l-.56-237.26-.47.4L523.4-54.94a6,6,0,0,1-8.46-.66,6,6,0,0,1,.66-8.46l52.5-44.86.09-.08,5.95-5.08,6,5.08h.4v.34l0,15.82Z" transform="translate(-249.5 114.08)"/><path class="cls-6" d="M633.65-55.34a6,6,0,0,1-8.45.67L580.53-92.84l-.47-.4L579.5,144a6,6,0,0,1-6,6h0a6,6,0,0,1-6-6l.56-237.1,0-15.81V-109h.09l5.95-5.08,6,5.08.41.34L633-63.8A6,6,0,0,1,633.65-55.34Z" transform="translate(-249.5 114.08)"/><path class="cls-6" d="M581.52,683.14l-6.37,5.45-6-5.17-4-3.42-48.5-41.44a6,6,0,0,1,7.8-9.12L569,667.59l.37.31-.89-118.41v-1.57a6,6,0,0,1,6-5.92h0a6,6,0,0,1,6,6v1.38l.89,118.1.09,12.56Z" transform="translate(-249.5 114.08)"/><path class="cls-6" d="M634,638.3,585.19,680l-3.67,3.14-6.37,5.45-6-5.17V680L569,667.59l-.52-118.1V547a6,6,0,0,1,6-6h0a6,6,0,0,1,6,6v2.37L581,667.76l.37-.32,44.8-38.27A6,6,0,0,1,634,638.3Z" transform="translate(-249.5 114.08)"/><polygon class="cls-6" points="330.59 5.08 318.69 5.08 324.64 0 330.59 5.08"/><polygon class="cls-6" points="335.69 794.08 332.02 797.22 325.65 802.67 319.6 797.5 315.6 794.08 335.69 794.08"/></g></svg>